<svg version="1.1" xmlns="http://www.w3.org/2000/svg" xmlns:xlink="http://www.w3.org/1999/xlink" width="100.46984" height="100.75143" viewBox="0,0,129.46984,125.75143"><g transform="translate(-175.26508,-117.12428)"><g data-paper-data="{&quot;isPaintingLayer&quot;:true}" fill-rule="nonzero" stroke-linecap="butt" stroke-linejoin="miter" stroke-miterlimit="10" stroke-dasharray="" stroke-dashoffset="0" style="mix-blend-mode: normal"><path d="M299.73492,180c0,31.96388 -26.74424,57.87572 -59.73492,57.87572c-32.99069,0 -59.73492,-25.91184 -59.73492,-57.87572c0,-31.96387 26.74424,-57.87571 59.73492,-57.87571c32.99068,0 59.73492,25.91184 59.73492,57.87571z" fill="#ff9f2e" stroke="none" stroke-width="0"/><path d="M181.57718,193.91421c0,-1.7671 0.9167,-3.32009 2.3005,-4.20937l0.03531,-0.06763l0.14236,-0.04139c0.69545,-0.407 1.49801,-0.65081 2.35515,-0.67889l2.60549,-0.09893l2.38394,-0.20893l0.05034,0.008l0.0485,-0.01567l1.46108,-0.0989l2.9544,-0.22675l1.3545,-0.1788l1.38154,-0.21363l1.32177,-0.24986l6.40227,-1.26731l0.06813,0.00338l0.06245,-0.02743l0.88021,-0.15007l0.08511,0.00649l0.07925,-0.03171l3.02279,-0.41243l0.0967,0.01062l0.09162,-0.03269l3.80192,-0.37256l0.05237,0.00777l0.05022,-0.01676l1.59447,-0.12315l1.45274,-0.13988l2.92479,-0.35949l0.01007,0.00124l0.00948,-0.0036l0.80829,-0.09612l1.82811,-0.25063l1.09235,-0.21043l0.11269,0.00617l0.10433,-0.04304l1.33561,-0.19678l0.00985,0.00098l0.00917,-0.00374l6.01039,-0.86192l4.17803,-0.77105l0.01348,0.00084l0.01232,-0.00553l7.25977,-1.30046l0.0395,0.00268l0.03636,-0.01567l3.90137,-0.63704l0.15558,0.01296l0.14688,-0.05292l3.03239,-0.3068l0.08975,0.01303l0.08635,-0.0277l6.39168,-0.41919l1.17706,-0.14277l0.64914,-0.0929l1.42387,-0.21416l1.36823,-0.28983l0.02653,0.00096l0.02398,-0.01139l0.7277,-0.14632l0.05888,0.00274l0.05381,-0.02406l2.15444,-0.38201l2.66536,-0.59451l3.5414,-1.09642l1.14638,-0.41285l0.01141,-0.00115l0.00956,-0.00635l4.25651,-1.51152l0.92282,-0.34177l2.38573,-0.88829l0.00545,-0.00061l0.00452,-0.00309l1.82861,-0.67643l0.12389,-0.0136l0.10621,-0.06521l0.76546,-0.24154l0.19879,-0.01208l0.17732,-0.09066l0.7194,-0.16667l0.21185,0.00367l0.196,-0.08048l0.77897,-0.11346l0.77378,-0.15697l0.10323,0.00463l0.09499,-0.0407l0.71273,-0.11491l0.01781,0.00152l0.01648,-0.00692l0.33017,-0.05088l0.44256,-0.21724l0.18092,-0.03881l0.14964,-0.10884l0.94531,-0.38184l0.89164,-0.12466l0.86829,-0.23799l0.67855,-0.0153l0.10118,0.02288l0.01247,-0.00174l0.00811,0.0064l2.39169,0.54095l0.39834,0.66199l0.74883,0.19014l1.27028,2.2421l0.32048,1.15576l0.01344,0.52661l0.15892,0.50224l0.05469,0.88851l-0.06349,0.34207l0.05863,0.34294l-0.00422,0.05568c2.13507,2.01012 1.23467,5.52968 0.59011,8.13278c-0.62515,2.52466 -2.14922,5.80466 -4.24799,8.65772c-0.00447,0.03237 -0.00908,0.06421 -0.01381,0.09548c-0.92926,6.13906 -3.52231,10.4022 -7.15673,15.40856c-11.2695,15.52357 -29.4692,23.81775 -48.61126,23.39802c-14.19673,-0.3113 -31.06073,-8.45837 -41.44556,-17.89253c-3.43138,-3.11726 -4.89353,-5.5394 -5.97365,-9.68514c-0.37685,-0.70168 -0.703,-1.49037 -0.97842,-2.30346c-0.2248,-0.46955 -0.39807,-0.91483 -0.41633,-1.38309c-0.33733,-1.26786 -0.55354,-2.50996 -0.64849,-3.49548l-1.00686,0.03823c-0.07276,0.00314 -0.14592,0.00473 -0.21945,0.00473c-0.78484,0 -1.52745,-0.18083 -2.18843,-0.5031l-0.14378,-0.0302l-0.03996,-0.06415c-1.56472,-0.84487 -2.62783,-2.49956 -2.62783,-4.40255zM283.72209,182.68348l0.02652,-0.02889l-0.35054,0.12967l-0.33629,0.12521l0.21445,0.09979z" fill="#c77b24" stroke="none" stroke-width="0.5"/><path d="M299.73492,180c0,31.96388 -26.74424,57.87572 -59.73492,57.87572c-32.99069,0 -59.73492,-25.91184 -59.73492,-57.87572c0,-31.96387 26.74424,-57.87571 59.73492,-57.87571c32.99068,0 59.73492,25.91184 59.73492,57.87571z" fill="none" stroke="#000000" stroke-width="10"/></g></g></svg>